<svg xmlns="http://www.w3.org/2000/svg" width="24" height="24" viewBox="0 0 24 24" fill="none">
  <path d="M11.4048 5.77824L12.0054 6.58094L12.6059 5.77824C13.481 4.60855 14.8827 3.84896 16.4454 3.84896C19.0977 3.84896 21.2554 6.00966 21.2554 8.68896C21.2554 9.79739 21.0787 10.8196 20.7718 11.7681L20.7702 11.773C20.0339 14.103 18.5219 15.9897 16.8778 17.4027C15.2304 18.8185 13.4935 19.7214 12.3838 20.0989L12.3838 20.0989L12.3758 20.1017C12.311 20.1246 12.1768 20.149 12.0054 20.149C11.834 20.149 11.6998 20.1246 11.635 20.1017L11.635 20.1017L11.627 20.0989C10.5173 19.7214 8.78037 18.8185 7.13296 17.4027C5.48886 15.9897 3.97681 14.103 3.24051 11.773L3.24053 11.773L3.23895 11.7681C2.93208 10.8196 2.75537 9.79739 2.75537 8.68896C2.75537 6.00966 4.91309 3.84896 7.56537 3.84896C9.12801 3.84896 10.5297 4.60855 11.4048 5.77824Z" stroke="#242424" stroke-width="1.5"/>
</svg>