<svg width="16" height="22" viewBox="0 0 16 22" fill="none" xmlns="http://www.w3.org/2000/svg">
<path d="M14.5 11.65V15.35C14.5 18.47 11.59 21 8 21C4.41 21 1.5 18.47 1.5 15.35V11.65C1.5 14.77 4.41 17 8 17C11.59 17 14.5 14.77 14.5 11.65Z" stroke="#bdbdbd" stroke-width="1.5" stroke-linecap="round" stroke-linejoin="round"/>
<path d="M14.5 6.65C14.5 7.56 14.25 8.4 13.81 9.12C12.74 10.88 10.54 12 8 12C5.46 12 3.26 10.88 2.19 9.12C1.75 8.4 1.5 7.56 1.5 6.65C1.5 5.09 2.22999 3.68 3.39999 2.66C4.57999 1.63 6.2 1 8 1C9.8 1 11.42 1.63 12.6 2.65C13.77 3.68 14.5 5.09 14.5 6.65Z" stroke="#bdbdbd" stroke-width="1.5" stroke-linecap="round" stroke-linejoin="round"/>
<path d="M14.5 6.65V11.65C14.5 14.77 11.59 17 8 17C4.41 17 1.5 14.77 1.5 11.65V6.65C1.5 3.53 4.41 1 8 1C9.8 1 11.42 1.63 12.6 2.65C13.77 3.68 14.5 5.09 14.5 6.65Z" stroke="#bdbdbd" stroke-width="1.5" stroke-linecap="round" stroke-linejoin="round"/>
</svg>
